<svg width="457" height="140" viewBox="0 0 457 140" fill="none" xmlns="http://www.w3.org/2000/svg">
<rect width="457" height="140" fill="#1E1E1E"/>
<rect width="457" height="140" fill="white"/>
<path d="M122.269 93V47.56H129.181V90.44L125.533 86.664H151.325V93H122.269ZM168.661 93.768C165.418 93.768 162.581 93.0427 160.149 91.592C157.717 90.1413 155.84 88.072 154.517 85.384C153.194 82.696 152.533 79.56 152.533 75.976C152.533 72.3493 153.194 69.2133 154.517 66.568C155.84 63.9227 157.717 61.8747 160.149 60.424C162.581 58.9307 165.418 58.184 168.661 58.184C171.904 58.184 174.741 58.9307 177.173 60.424C179.605 61.8747 181.482 63.9227 182.805 66.568C184.128 69.2133 184.789 72.3493 184.789 75.976C184.789 79.56 184.128 82.696 182.805 85.384C181.482 88.072 179.605 90.1413 177.173 91.592C174.741 93.0427 171.904 93.768 168.661 93.768ZM168.661 87.88C171.562 87.88 173.802 86.8347 175.381 84.744C176.96 82.6107 177.749 79.688 177.749 75.976C177.749 72.264 176.96 69.3627 175.381 67.272C173.802 65.1387 171.562 64.072 168.661 64.072C165.802 64.072 163.562 65.1387 161.941 67.272C160.362 69.3627 159.573 72.264 159.573 75.976C159.573 79.688 160.362 82.6107 161.941 84.744C163.562 86.8347 165.802 87.88 168.661 87.88ZM203.741 93.768C200.498 93.768 197.661 93.0427 195.229 91.592C192.797 90.1413 190.92 88.072 189.597 85.384C188.274 82.696 187.613 79.56 187.613 75.976C187.613 72.392 188.274 69.2773 189.597 66.632C190.92 63.944 192.797 61.8747 195.229 60.424C197.661 58.9307 200.498 58.184 203.741 58.184C206.514 58.184 208.968 58.6747 211.101 59.656C213.277 60.5947 215.026 61.9813 216.349 63.816C217.714 65.6507 218.589 67.8907 218.973 70.536L211.869 70.92C211.528 68.7013 210.632 67.016 209.181 65.864C207.73 64.6693 205.917 64.072 203.741 64.072C200.882 64.072 198.642 65.1387 197.021 67.272C195.442 69.3627 194.653 72.264 194.653 75.976C194.653 79.688 195.442 82.6107 197.021 84.744C198.642 86.8347 200.882 87.88 203.741 87.88C205.917 87.88 207.73 87.2827 209.181 86.088C210.632 84.8507 211.528 82.9947 211.869 80.52L218.973 80.904C218.589 83.5067 217.714 85.768 216.349 87.688C215.026 89.608 213.277 91.1013 211.101 92.168C208.968 93.2347 206.514 93.768 203.741 93.768ZM233.466 93.768C229.925 93.768 227.087 92.9573 224.954 91.336C222.863 89.7147 221.818 87.432 221.818 84.488C221.818 81.544 222.693 79.2613 224.442 77.64C226.234 75.976 228.986 74.7813 232.698 74.056L244.41 71.816C244.41 69.1707 243.791 67.208 242.554 65.928C241.317 64.6053 239.482 63.944 237.05 63.944C234.874 63.944 233.167 64.4347 231.93 65.416C230.693 66.3547 229.839 67.7627 229.37 69.64L222.394 69.192C223.034 65.7787 224.613 63.0907 227.13 61.128C229.69 59.1653 232.997 58.184 237.05 58.184C241.658 58.184 245.157 59.4213 247.546 61.896C249.978 64.328 251.194 67.7627 251.194 72.2V85.448C251.194 86.2587 251.322 86.8347 251.578 87.176C251.877 87.4747 252.346 87.624 252.986 87.624H254.202V93C253.989 93.0427 253.647 93.0853 253.178 93.128C252.709 93.1707 252.218 93.192 251.706 93.192C250.255 93.192 248.997 92.9573 247.93 92.488C246.906 92.0187 246.138 91.2507 245.626 90.184C245.114 89.0747 244.858 87.6027 244.858 85.768L245.562 86.088C245.221 87.5813 244.474 88.904 243.322 90.056C242.213 91.208 240.783 92.1253 239.034 92.808C237.327 93.448 235.471 93.768 233.466 93.768ZM234.554 88.392C236.602 88.392 238.351 88.008 239.802 87.24C241.253 86.4293 242.383 85.32 243.194 83.912C244.005 82.504 244.41 80.904 244.41 79.112V76.936L234.426 78.856C232.378 79.24 230.927 79.8587 230.074 80.712C229.263 81.5227 228.858 82.568 228.858 83.848C228.858 85.2987 229.349 86.4293 230.33 87.24C231.354 88.008 232.762 88.392 234.554 88.392ZM264.997 93C262.778 93 260.986 92.424 259.621 91.272C258.255 90.12 257.573 88.2853 257.573 85.768V47.56H264.357V85.128C264.357 85.896 264.549 86.472 264.933 86.856C265.359 87.24 265.957 87.432 266.725 87.432H269.413V93H264.997ZM273.215 93V58.952H279.999V93H273.215ZM273.087 54.024V47.24H280.127V54.024H273.087ZM286.518 93V86.92L307.062 64.52H287.158V58.952H314.87V65.032L294.134 87.432H315.382V93H286.518ZM333.953 93.768C330.625 93.768 327.745 93.0427 325.313 91.592C322.924 90.1413 321.068 88.072 319.745 85.384C318.465 82.696 317.825 79.56 317.825 75.976C317.825 72.392 318.465 69.2773 319.745 66.632C321.068 63.944 322.924 61.8747 325.313 60.424C327.703 58.9307 330.519 58.184 333.761 58.184C336.833 58.184 339.543 58.9093 341.889 60.36C344.236 61.768 346.049 63.816 347.329 66.504C348.652 69.192 349.313 72.4347 349.313 76.232V77.96H324.865C325.036 81.288 325.911 83.784 327.489 85.448C329.111 87.112 331.287 87.944 334.017 87.944C336.023 87.944 337.687 87.4747 339.009 86.536C340.332 85.5973 341.249 84.3387 341.761 82.76L348.801 83.208C347.905 86.3653 346.135 88.9253 343.489 90.888C340.887 92.808 337.708 93.768 333.953 93.768ZM324.865 72.84H342.145C341.932 69.8107 341.057 67.5707 339.521 66.12C338.028 64.6693 336.108 63.944 333.761 63.944C331.329 63.944 329.324 64.712 327.745 66.248C326.209 67.7413 325.249 69.9387 324.865 72.84ZM350.747 93L367.132 47.56H375.899L392.284 93H384.924L380.764 81.16H362.203L358.107 93H350.747ZM364.379 74.888H378.652L371.483 54.152L364.379 74.888ZM395.801 93V47.56H402.713V93H395.801Z" fill="black"/>
<g opacity="0.9">
<path d="M42.4231 71.3145C42.4231 71.3145 54.8623 68.5567 60.8058 62.7329C66.7492 56.909 69.7375 44 69.7375 44" stroke="black" stroke-width="6" stroke-linecap="round"/>
<path d="M69.9852 44.2476C69.9852 44.2476 72.7429 56.6869 78.5667 62.6303C84.3906 68.5737 97.2996 71.5621 97.2996 71.5621" stroke="black" stroke-width="6" stroke-linecap="round"/>
<path d="M69.8387 99.6773C69.8387 99.6773 66.5567 86.8604 60.7329 80.9169C54.9091 74.9735 42.4564 71.3823 42.4564 71.3823" stroke="black" stroke-width="6" stroke-linecap="round"/>
<path d="M97.2209 71.8386C97.2209 71.8386 84.8307 75.4433 78.8873 81.2671C72.9438 87.091 69.9555 100 69.9555 100" stroke="black" stroke-width="6" stroke-linecap="round"/>
</g>
</svg>
